<svg width="32" height="24" viewBox="0 0 32 24" fill="none" xmlns="http://www.w3.org/2000/svg">
<g id="specification-icon-8.svg" clip-path="url(#clip0_249_6943)">
<path id="Vector" d="M17.0918 4.06195L11.1854 4L10.705 4.10882L10.3065 4.35592L9.84949 4.8061L8.64832 6.81585C7.98621 7.92325 7.35926 8.90766 7.24793 9.01316C6.94324 9.31196 6.66785 9.37056 5.0741 9.49946C3.1991 9.65176 3.14051 9.65766 2.71277 9.85106C2.1034 10.1265 1.65808 10.6128 1.45301 11.2397C1.3534 11.5386 1.34168 11.7847 1.34168 13.9526C1.34168 16.3374 1.34168 16.3374 1.47644 16.5952C1.57019 16.7651 1.71082 16.9116 1.89832 17.0288C2.17957 17.2046 2.17957 17.2046 3.29871 17.2339L4.41199 17.2632L4.47645 17.5327C4.57605 17.9194 4.80457 18.394 5.05066 18.7163L5.26746 18.9917L3.45691 18.9917C1.71668 18.9917 1.64637 18.9975 1.49402 19.1147C1.30066 19.2671 1.27723 19.6304 1.45887 19.812C1.57605 19.9292 1.65222 19.9292 16.3417 19.9292C31.0311 19.9292 31.1073 19.9292 31.2245 19.812C31.3886 19.6479 31.3827 19.2847 31.2186 19.1323C31.1014 19.0268 30.9491 19.021 28.4882 18.9917L25.8807 18.9624L26.0741 18.728C26.2968 18.4526 26.6249 17.7612 26.6776 17.4565L26.7186 17.2397L28.6112 17.2222L30.5038 17.2046L30.785 17.0288C30.9725 16.9116 31.1132 16.7651 31.2069 16.5952C31.3417 16.3374 31.3417 16.3198 31.3417 14.3335C31.3417 12.6753 31.3241 12.2768 31.2479 12.0132C30.9198 10.894 30.0468 9.99165 28.9686 9.65175C28.8104 9.59905 28.3475 9.52285 27.955 9.47605C27.1171 9.37645 26.8124 9.23575 26.5546 8.84905C26.455 8.69675 26.244 8.05805 25.9393 6.99165C25.4471 5.2514 25.2714 4.81195 24.8905 4.38421C24.6854 4.14984 24.621 4.10883 24.4335 4.10883C24.0526 4.10883 24.5565 5.34125 24.5565 5.34125L24.5918 5.06195L20.5918 5.23431L12.8656 5.22212L14.2356 5.23141L15.996 5.25014L13.2358 5.22212L14.4796 5.234L15.8908 5.24902L16.5918 5.25648L15.1897 5.24156L15.8748 5.24885L24.5446 5.22212C24.4333 5.33932 15.996 5.25014 15.996 5.25014L19.0918 5.28309L13.8577 5.22806L13.2976 5.22505L16.0918 5.24818L17.267 5.2639L21.1742 5.2824L24.5565 5.34125L24.7382 6.32367L25.1249 7.65965C25.5409 9.10105 25.6757 9.39985 26.0975 9.78655C26.4608 10.1206 26.8768 10.3022 27.4452 10.3784C28.8104 10.5542 29.1971 10.7007 29.6835 11.2163C30.0175 11.5679 30.205 11.9018 30.3221 12.3413C30.4335 12.7397 30.4393 16.062 30.3339 16.1675C30.2811 16.2202 29.7948 16.2378 28.4999 16.2378L26.7362 16.2378L26.6132 15.81C25.9569 13.5893 23.1268 12.8042 21.4159 14.3686C20.9061 14.8315 20.6132 15.3179 20.4432 15.9858L20.3788 16.2378L16.3182 16.2378C12.1288 16.2378 11.953 16.2495 11.83 16.4722C11.7304 16.6597 11.7596 16.9702 11.8944 17.0932C12.0116 17.1987 12.1815 17.2046 16.2011 17.2222L20.3846 17.2339L20.4198 17.3979C20.5253 17.896 20.7889 18.435 21.0995 18.7866L21.2753 18.9917L15.5858 18.9917L9.89637 18.9917L10.1073 18.7163C10.5526 18.1304 10.7753 17.48 10.7753 16.7593C10.7753 15.8393 10.4706 15.1186 9.82605 14.4682C9.02332 13.6714 7.90418 13.3667 6.79676 13.6362C5.91199 13.853 5.1034 14.5034 4.72254 15.3003C4.60535 15.5405 4.49402 15.8511 4.47059 15.9858L4.42957 16.2378L3.42176 16.2378C2.62488 16.2378 2.39637 16.2202 2.34363 16.1557C2.2909 16.0972 2.27918 15.4761 2.2909 13.8237C2.30848 11.3452 2.29676 11.4214 2.70105 11.0171C3.06434 10.6597 3.24598 10.6128 5.12098 10.4604C7.03113 10.3081 7.27137 10.2495 7.78113 9.85106C7.93934 9.72216 8.15027 9.50536 8.24402 9.37056C8.52527 8.95456 10.705 5.22212 10.705 5.22212L13.3628 5.22212L24.5565 5.34125L24.4335 4.10883L18.5918 4.07153L21.0918 4.06805L20.5918 4.0843L21.5918 4.07415L22.2207 4.0947C21.7226 4.11814 24.5565 5.34125 24.5565 5.34125C24.5565 5.34125 24.328 4.13226 24.4335 4.10883C24.8905 4.38421 24.5565 4.11918 24.5565 4.11918L24.5918 4.12883L24.4335 4.10883L24.7382 6.32367L24.5918 4.56195L24.4335 4.10883L17.0918 4.06195ZM7.96863 14.5386C8.40809 14.6206 8.76551 14.8081 9.11121 15.1362C10.453 16.4018 9.76746 18.5991 7.92176 18.9448C6.49207 19.2085 5.12684 17.8374 5.37879 16.3901C5.56629 15.3413 6.46277 14.5444 7.52918 14.4858C7.59949 14.48 7.79285 14.5093 7.96863 14.5386ZM23.9296 14.5444C24.6386 14.6733 25.2889 15.1714 25.5878 15.8159C25.7284 16.1089 25.746 16.2202 25.746 16.7358C25.746 17.2807 25.7343 17.3511 25.5526 17.7143C25.2362 18.3589 24.6386 18.8042 23.9296 18.939C22.6054 19.185 21.3221 18.0952 21.3221 16.7358C21.3221 15.6811 22.1014 14.7495 23.1561 14.5444C23.5077 14.4741 23.5429 14.4741 23.9296 14.5444Z" fill="#201F1D"/>
<g id="Group 1">
<path id="Vector_2" d="M7.0779 15.3764C6.09938 15.7455 5.82399 17.017 6.56228 17.7553C6.84353 18.0365 7.16579 18.1713 7.58181 18.1713C8.19118 18.1713 8.72438 17.808 8.93532 17.2572C9.05251 16.9525 9.02321 16.3607 8.88259 16.0853C8.7654 15.8627 8.45485 15.5521 8.22634 15.4349C7.9861 15.306 7.34157 15.2767 7.0779 15.3764ZM7.78103 16.3256C8.2322 16.5541 8.08571 17.1986 7.58181 17.1986C7.08376 17.1986 6.93142 16.5658 7.37087 16.3256C7.56423 16.2201 7.58181 16.2201 7.78103 16.3256Z" fill="#201F1D"/>
<path id="Vector_3" d="M22.9923 15.4116C22.4298 15.6694 22.1251 16.1264 22.1309 16.7299C22.1309 17.3334 22.4063 17.7905 22.9337 18.0307C23.4552 18.2768 24.0587 18.2065 24.4747 17.8432C25.2833 17.1518 25.1192 15.8862 24.1641 15.4409C23.8009 15.2709 23.3263 15.2592 22.9923 15.4116ZM23.7247 16.2963C23.8419 16.2963 24.0177 16.56 24.0177 16.7299C24.0118 16.935 23.9298 17.0639 23.7423 17.1635C23.5548 17.269 23.461 17.2514 23.2618 17.0815C23.127 16.9702 23.0802 16.8823 23.0802 16.7416C23.0802 16.4838 23.3849 16.2026 23.5958 16.2729C23.6427 16.2846 23.7013 16.2963 23.7247 16.2963Z" fill="#201F1D"/>
</g>
<path id="Vector_4" d="M3.52103 11.7261C3.33939 11.8961 3.34525 12.2476 3.52689 12.4175C3.69682 12.5757 3.97807 12.5816 4.15971 12.4351C4.35307 12.2769 4.35307 11.8785 4.15971 11.7203C3.97807 11.5738 3.67924 11.5797 3.52103 11.7261Z" fill="#201F1D"/>
<path id="Vector_5" d="M28.3125 11.6967C28.1426 11.8198 28.0899 12.0835 28.2012 12.3002C28.4297 12.7456 29.0567 12.5698 29.0567 12.06C29.0567 11.6792 28.6348 11.4741 28.3125 11.6967Z" fill="#201F1D"/>
</g>
<defs>
<clipPath id="clip0_249_6943">
<rect width="31" height="24" fill="white" transform="translate(0.834961)"/>
</clipPath>
</defs>
</svg>
