<svg width="32" height="32" viewBox="0 0 32 32" fill="none" xmlns="http://www.w3.org/2000/svg">
<g id="specification-icon-2.svg" clip-path="url(#clip0_249_6810)">
<path id="Vector" d="M15.4539 17.6191C16.6242 17.6191 17.5729 16.6704 17.5729 15.5001C17.5729 14.3298 16.6242 13.3811 15.4539 13.3811C14.2837 13.3811 13.335 14.3298 13.335 15.5001C13.335 16.6704 14.2837 17.6191 15.4539 17.6191Z" fill="#FFFBEF"/>
<path id="Vector_2" d="M26.2059 18.196C27.3761 18.196 28.3248 17.2473 28.3248 16.077C28.3248 14.9067 27.3761 13.958 26.2059 13.958C25.0356 13.958 24.0869 14.9067 24.0869 16.077C24.0869 17.2473 25.0356 18.196 26.2059 18.196Z" fill="#FFFBEF"/>
<path id="Vector_3" d="M11.7229 19.9539L6.56641 18.196V29.4465H19.8092L31.0854 22.7498L30.2393 20.5399L26.2547 22.0634L21.8014 23.9385L12.3089 24.6416L18.7544 23.9385L18.1685 21.243L11.7229 19.9539Z" fill="#FFFBEF"/>
<path id="Vector_4" d="M4.40921 0.623204C4.09865 0.781414 3.73536 1.18573 3.64746 1.48457C3.60059 1.6252 3.57715 2.15256 3.57715 2.85572C3.57715 4.11553 3.61816 4.35578 3.9463 4.98276C4.13967 5.34605 4.71977 5.97303 4.92486 6.03749C5.04205 6.07264 5.04205 6.14296 5.04205 9.4302C5.04205 11.8092 5.05963 12.8463 5.10651 12.9811C5.14752 13.0866 5.45222 13.5436 5.78622 13.989C6.43078 14.8562 6.64758 15.0261 7.07534 15.032C7.52067 15.032 7.70817 14.8855 8.34687 14.0417C8.68087 13.6022 8.97971 13.1862 9.01487 13.1159C9.06175 13.0339 9.08518 12.6706 9.08518 12.1315V11.2701L8.72775 10.8951L8.37031 10.5259L8.63985 10.2213C9.13792 9.67045 9.13206 9.29543 8.61641 8.7915L8.32343 8.50438L8.70431 8.11179L9.08518 7.7192V6.92815V6.1371L9.28441 6.00819C9.82935 5.67419 10.4036 4.83041 10.5442 4.14483C10.6263 3.75224 10.6263 1.83028 10.5501 1.54316C10.4505 1.19745 10.1458 0.84001 9.7942 0.658362L9.47192 0.500153H7.06948C4.73735 0.500153 4.65532 0.506012 4.40921 0.623204ZM9.41332 1.70137L9.56567 1.85372L9.54223 2.92017C9.52465 3.95146 9.5188 3.99834 9.36059 4.32062C9.12034 4.81283 8.65157 5.21128 8.14179 5.36949C7.79021 5.47496 7.62028 5.49254 6.92885 5.4691C6.21397 5.45153 6.09092 5.42809 5.79794 5.29332C5.39363 5.10581 5.04205 4.77181 4.82525 4.35578C4.66704 4.05108 4.66118 4.01592 4.6436 2.93775C4.62016 1.85958 4.62602 1.83028 4.75493 1.69551L4.88384 1.55488H7.07534H9.26683L9.41332 1.70137ZM8.03045 6.88713C8.03045 7.26801 8.02459 7.27386 7.76091 7.53169C7.60856 7.67818 7.41519 7.91256 7.32144 8.05319C7.04604 8.48095 7.09877 8.76221 7.53825 9.23098L7.81365 9.52396L7.51481 9.84038C6.99916 10.3853 7.0226 10.6724 7.62614 11.3053L8.03045 11.733V12.2018V12.6706L7.55582 13.2975L7.0812 13.9245L6.58899 13.2682L6.09678 12.612V9.55911V6.50626H7.06362H8.03045V6.88713Z" fill="#201F1D"/>
<path id="Vector_5" d="M6.19104 2.67417C6.01525 2.87926 6.00353 3.01403 6.12659 3.24841C6.2555 3.50038 6.4723 3.55897 7.17546 3.53554C7.72626 3.51796 7.80244 3.50624 7.93721 3.37733C8.15401 3.17224 8.15401 2.78551 7.93721 2.61558C7.79658 2.50424 7.70282 2.49252 7.06412 2.49252H6.34339L6.19104 2.67417Z" fill="#201F1D"/>
<path id="Vector_6" d="M17.2015 5.55718C16.8558 5.69196 16.5921 5.89704 16.4222 6.17244C16.3226 6.32479 15.9065 7.12756 15.4964 7.95377L14.7405 9.46555H13.3283C11.7169 9.46555 11.4591 9.51242 11.0724 9.85814C10.5977 10.2859 10.5801 10.3562 10.5625 12.0613L10.545 13.5673L10.3164 13.6845C9.88282 13.9071 9.55469 14.4696 9.55469 15.0029C9.55469 15.5888 9.91798 16.1514 10.4453 16.3799C10.7149 16.5029 10.8731 16.5205 11.7052 16.5439L12.6545 16.5674L12.8303 16.9483C13.2053 17.751 14.0315 18.3604 14.9221 18.4893C16.1058 18.671 17.3363 18.0264 17.8344 16.96L18.0219 16.5557H20.8345H23.6471L23.8463 16.9658C24.362 18.0381 25.569 18.671 26.7585 18.4893C27.6434 18.3546 28.4637 17.7452 28.8387 16.9483L29.0145 16.5732L29.7294 16.5439C30.2157 16.5205 30.5204 16.4795 30.6786 16.415C30.9833 16.2861 31.3349 15.9463 31.4755 15.6474C31.6103 15.3603 31.622 14.704 31.5048 14.4169C31.3935 14.1532 30.9833 13.7138 30.7665 13.6259L30.5907 13.5555V12.0789V10.6023L30.4384 10.2918C30.2567 9.93432 29.8759 9.62375 29.495 9.53C29.3602 9.49484 29.0614 9.46555 28.8387 9.46555H28.4227L27.6023 7.83071C27.157 6.92833 26.7 6.09627 26.6003 5.97908C26.4949 5.86188 26.3015 5.70953 26.1726 5.63922L25.9323 5.51031L21.6548 5.49859C18.4731 5.49273 17.3304 5.50445 17.2015 5.55718ZM21.0396 8.00064V9.46555H18.4906H15.9417L16.6156 8.12369C16.9847 7.38538 17.3422 6.72325 17.4183 6.65879C17.5414 6.5416 17.6058 6.53574 19.2934 6.53574H21.0396V8.00064ZM25.7155 6.62949C25.821 6.69981 27.1922 9.30734 27.1922 9.43625C27.1922 9.45383 26.0437 9.46555 24.6432 9.46555H22.0943V8.00064V6.53574H23.8405C25.3347 6.53574 25.6042 6.54746 25.7155 6.62949ZM13.0705 10.7898C13.0705 11.3406 12.9181 11.4519 12.1798 11.4578H11.6056V11.159C11.6056 10.907 11.6349 10.8367 11.7755 10.6902C11.9396 10.5261 11.9689 10.5203 12.508 10.5203H13.0705V10.7898ZM29.2958 10.6082C29.3895 10.655 29.4774 10.7371 29.5008 10.7839C29.5184 10.8367 29.536 11.4578 29.536 12.1668V13.4501H28.7215C27.9715 13.4501 27.8895 13.4384 27.6551 13.3094C26.8816 12.8758 25.8679 12.8758 25.0124 13.3094C24.7428 13.4442 24.6901 13.4501 23.4127 13.4501H22.0943V12.6121C22.0884 12.0496 22.065 11.7508 22.0181 11.6863C21.7896 11.3933 21.3443 11.4051 21.1568 11.7098C21.0571 11.868 21.0396 12.0086 21.0396 12.6707V13.4501H18.9887H16.932L16.6273 13.2919C15.8011 12.8758 14.7756 12.8817 14.0139 13.3094C13.7678 13.4442 13.7151 13.4501 12.6838 13.4501H11.6056V12.9813V12.5125H12.2384C12.9943 12.5125 13.3049 12.4246 13.6213 12.1199C13.9494 11.7977 14.0725 11.5105 14.1076 10.9773L14.1428 10.5203H21.6372C28.1004 10.5203 29.1551 10.532 29.2958 10.6082ZM16.0589 14.2118C17.014 14.6923 17.3304 15.8232 16.7503 16.7022C16.3929 17.2354 15.6429 17.5635 15.0569 17.4405C14.0842 17.2295 13.4631 16.333 13.6565 15.413C13.7736 14.8388 14.2893 14.2704 14.8518 14.0946C15.1507 14.0009 15.7601 14.0595 16.0589 14.2118ZM27.0574 14.206C27.4383 14.3993 27.7019 14.6572 27.8777 15.0146C28.4168 16.1221 27.5789 17.4522 26.3367 17.458C25.8386 17.458 25.2878 17.1885 24.9948 16.8076C24.2448 15.8232 24.6901 14.4872 25.903 14.0888C26.1609 14.0009 26.7937 14.0653 27.0574 14.206ZM12.7189 14.8388C12.6603 15.0263 12.5959 15.249 12.5724 15.3369L12.5431 15.5009H11.8341C11.0724 15.5009 10.7852 15.4306 10.668 15.208C10.5625 15.0146 10.6504 14.745 10.8614 14.6161C11.0255 14.5224 11.1661 14.5048 11.9396 14.5048H12.8244L12.7189 14.8388ZM23.6998 14.8974C23.6237 15.1201 23.5592 15.3427 23.5592 15.3955C23.5592 15.4951 23.3893 15.5009 20.8403 15.5009H18.1215L18.0805 15.249C18.057 15.1142 17.9926 14.8915 17.934 14.7509L17.8226 14.5048H20.8286H23.8346L23.6998 14.8974ZM30.3798 14.6747C30.5849 14.8681 30.5849 15.1376 30.3857 15.3251C30.2567 15.4482 30.163 15.4716 29.6884 15.4892L29.1376 15.5127L29.0731 15.2138C29.0379 15.0497 28.9676 14.8212 28.9207 14.704L28.8329 14.4931L29.5301 14.5165C30.1747 14.5341 30.2392 14.5458 30.3798 14.6747Z" fill="#201F1D"/>
<path id="Vector_7" d="M17.8461 11.528C17.5414 11.6921 17.477 12.1199 17.729 12.366C17.8637 12.5066 17.9047 12.5125 18.5962 12.5125C19.27 12.5125 19.3286 12.5007 19.4458 12.3777C19.5103 12.3074 19.5806 12.1785 19.604 12.0964C19.6568 11.8913 19.4986 11.5866 19.3052 11.5163C19.106 11.4401 17.9926 11.446 17.8461 11.528Z" fill="#201F1D"/>
<path id="Vector_8" d="M23.3188 11.5456C23.0141 11.7097 22.9789 12.1843 23.2543 12.3953C23.3774 12.4949 23.4887 12.5125 24.0864 12.5125C24.6841 12.5125 24.7954 12.4949 24.9185 12.3953C25.1997 12.1785 25.1587 11.7038 24.8423 11.5456C24.6196 11.4284 23.5356 11.4284 23.3188 11.5456Z" fill="#201F1D"/>
<path id="Vector_9" d="M2.58145 17.0534C2.21815 17.1706 1.91931 17.4343 1.73766 17.7976L1.58531 18.1023V23.7568C1.58531 30.1203 1.55602 29.6457 2.03064 30.1028C2.43496 30.4895 2.50527 30.5012 4.32175 30.5012C5.83353 30.5012 5.9683 30.4895 6.21441 30.3782C6.3609 30.3137 6.53083 30.2082 6.59528 30.1496C6.71247 30.0383 6.91756 30.0325 13.3632 30.0207L20.0138 30.0032L20.4826 29.8391C21.0334 29.6399 20.7521 29.8039 26.3422 26.4054C29.9869 24.1904 30.8483 23.6396 31.0944 23.3818C31.4928 22.9658 31.61 22.6318 31.5749 21.9813C31.5456 21.4305 31.4166 21.1317 31.0592 20.7743C30.6959 20.411 30.4029 20.2879 29.8228 20.2586L29.3189 20.2352L24.4613 21.8524C21.4905 22.8427 19.5158 23.4697 19.3751 23.4697H19.1525L19.1935 23.2177C19.3927 22.0634 18.8536 20.9794 17.7579 20.3524C17.1895 20.0242 17.0079 20.0008 14.8574 19.9539C13.0057 19.9188 12.8358 19.907 12.4842 19.784C12.0096 19.6199 11.5819 19.3855 11.0252 18.9754C10.4919 18.5886 10.0349 18.366 9.3493 18.1667C8.90983 18.0378 8.66373 18.0027 7.90198 17.9792C7.05233 17.9499 6.97616 17.9382 6.941 17.8269C6.8824 17.6452 6.50739 17.2585 6.24957 17.1237C6.02104 17.0007 5.92729 16.9948 4.42723 16.9831C3.19085 16.9714 2.78653 16.989 2.58145 17.0534ZM5.79838 18.1081C5.89213 18.155 5.98002 18.2371 6.00346 18.2839C6.02104 18.3367 6.03862 20.8094 6.03862 23.7802V29.1769L5.90971 29.3117C5.78666 29.4465 5.77494 29.4465 4.34519 29.4465C2.95646 29.4465 2.90959 29.4406 2.77482 29.3176L2.64004 29.1945V23.7802C2.64004 20.0594 2.65762 18.3249 2.7045 18.2488C2.73966 18.1843 2.82169 18.1081 2.89201 18.0788C2.96232 18.0495 3.60688 18.0261 4.32761 18.0261C5.36476 18.0202 5.66946 18.0378 5.79838 18.1081ZM8.57583 19.0808C9.15593 19.1687 9.80049 19.4324 10.2868 19.7781C11.031 20.3055 11.5701 20.5985 12.1327 20.786L12.6893 20.9735L14.7109 21.0086L16.7325 21.0379L17.0606 21.1962C17.963 21.6122 18.4317 22.5497 18.0919 23.247L17.9805 23.458L16.041 23.4814C14.1249 23.5048 14.0898 23.5107 13.58 23.6631C12.7948 23.9033 11.7342 24.4893 11.6404 24.7295C11.5701 24.9287 11.6112 25.169 11.7459 25.3272C11.9451 25.5557 12.2498 25.5498 12.6014 25.3096C12.9823 25.0459 13.5214 24.7822 13.9257 24.665C14.2245 24.5772 14.6581 24.5596 17.1426 24.5244L20.0138 24.4893L24.7601 22.8954C27.7368 21.8934 29.5884 21.3016 29.7349 21.3016C30.0455 21.3016 30.3209 21.4891 30.4791 21.8056C30.5904 22.0458 30.5963 22.0985 30.5318 22.3153C30.4967 22.4443 30.3854 22.62 30.2975 22.7021C30.0279 22.954 20.5588 28.673 20.1838 28.8195L19.838 28.9484L13.4686 28.966L7.09335 28.9836V23.9971V19.0164H7.62657C7.9137 19.0164 8.34731 19.0457 8.57583 19.0808Z" fill="#201F1D"/>
</g>
<defs>
<clipPath id="clip0_249_6810">
<rect width="31" height="31" fill="white" transform="translate(0.834961 0.5)"/>
</clipPath>
</defs>
</svg>
