<svg width="32" height="30" viewBox="0 0 32 30" fill="none" xmlns="http://www.w3.org/2000/svg">
<g id="specification-icon-4.svg" clip-path="url(#clip0_249_6926)">
<path id="Vector" d="M17.96 17.9883L19.1319 16.6406L21.0655 15.9961L22.5303 17.3438L24.6397 22.9102L24.6397 24.9023L22.5303 26.25L19.1319 26.6602L18.8389 23.7305L17.96 17.9883Z" fill="#FFFBEF"/>
<path id="Vector_2" d="M1.72949 12.9492L4.65918 8.61328L6.82715 11.0156L7.64746 13.7109L7.17871 15.8789L4.65918 16.7578L2.31543 15.8789L1.72949 12.9492Z" fill="#FFFBEF"/>
<g id="Clip path group">
<mask id="mask0_249_6926" style="mask-type:luminance" maskUnits="userSpaceOnUse" x="1" y="0" width="31" height="30">
<g id="clip0_96_13487">
<path id="Vector_3" d="M31.085 -2.18702e-06L1.08496 0L1.08496 30L31.085 30L31.085 -2.18702e-06Z" fill="white"/>
</g>
</mask>
<g mask="url(#mask0_249_6926)">
<g id="Group">
<path id="Vector_4" d="M2.56747 0.158182C2.23935 0.26951 1.7706 0.697245 1.62411 1.00779C1.55966 1.14842 1.41318 1.59959 1.29013 2.0156C1.10263 2.666 1.07333 2.83006 1.09677 3.19334C1.13779 3.85545 1.48935 4.38865 2.06357 4.65818C2.16903 4.71092 3.962 5.24998 6.04794 5.86521C8.13974 6.48045 9.90927 7.02537 9.98544 7.07225C10.2198 7.22459 13.1554 9.68553 13.1554 9.72654C13.1554 9.96092 16.6417 27.832 16.7413 28.0898C17.1574 29.2207 18.3117 30 19.5714 30C19.8292 30 20.1867 29.959 20.3624 29.9121C20.5382 29.8711 21.7921 29.3379 23.1398 28.7402L25.6007 27.6562L25.7472 27.7969C26.0519 28.0781 26.3917 28.207 26.8663 28.207C27.2941 28.2129 27.3527 28.1895 28.7882 27.5977C30.4347 26.9238 30.6984 26.7539 30.9445 26.2207C31.0499 25.998 31.0851 25.8223 31.0851 25.5L31.0851 25.0723L28.7413 19.3535L26.3976 13.6289L26.632 13.3477C27.0011 12.9141 27.13 12.5859 27.1242 12.0703C27.1242 11.5078 26.9718 11.1387 26.5558 10.7402C26.3859 10.5762 25.1027 9.44529 23.7023 8.2324C21.9152 6.68553 21.0597 5.97654 20.8312 5.87107C20.5675 5.74803 20.4269 5.71873 20.0695 5.71873C19.3605 5.72459 19.0851 5.90037 18.2238 6.87303L17.8722 7.27146L17.0812 6.6035C15.423 5.20896 12.4113 2.78318 12.1886 2.66014C12.0597 2.58396 10.0675 1.96873 7.76474 1.2949C3.2413 -0.0410369 3.16513 -0.0586151 2.56747 0.158182ZM7.37216 2.28514C9.56943 2.92967 11.4562 3.49803 11.5617 3.5449C11.6671 3.59178 12.4523 4.20115 13.3077 4.89842L14.8605 6.16404L14.5089 6.55076C14.3156 6.76756 13.8995 7.21873 13.5831 7.55271L13.0089 8.16209L11.837 7.18357C11.1925 6.64451 10.5714 6.15232 10.4601 6.09373C10.3487 6.03514 8.57919 5.49607 6.53427 4.89842C4.48935 4.2949 2.7081 3.7617 2.58505 3.70896C2.32724 3.59178 2.13974 3.33396 2.13974 3.08201C2.13974 2.98826 2.23349 2.58982 2.35068 2.18553C2.53818 1.57029 2.59677 1.43553 2.76669 1.28904C2.90732 1.166 3.0245 1.11326 3.17099 1.11326C3.28818 1.11326 5.17489 1.6406 7.37216 2.28514ZM20.5382 6.9492C20.6495 7.02537 21.9035 8.09764 23.3214 9.33396C24.9855 10.7812 25.9406 11.6484 26.0109 11.7832C26.1749 12.082 26.0812 12.3398 25.6359 12.8613C25.4425 13.084 25.2726 13.3418 25.255 13.4297C25.2257 13.5469 25.7882 14.9648 27.6222 19.4531C29.1632 23.209 30.0304 25.3945 30.0304 25.5234C30.0304 25.8867 29.8312 26.0156 28.4191 26.5898C27.7101 26.877 27.0714 27.1289 27.0011 27.1523C26.796 27.2168 26.4796 27.0469 26.3097 26.7773C26.1456 26.5195 25.923 26.3965 25.712 26.4551C25.6417 26.4727 24.3468 27.0352 22.841 27.7031L20.0988 28.916L19.6007 28.916C19.1847 28.916 19.0499 28.8926 18.7687 28.7578C18.3702 28.5703 17.9718 28.1895 17.796 27.8203C17.6964 27.627 17.1749 25.0078 15.9093 18.4219C14.9425 13.4004 14.1339 9.24021 14.1163 9.18162C14.0988 9.12303 14.0284 9.02928 13.964 8.96482L13.8409 8.8535L14.5148 8.13279C14.8839 7.73436 15.3058 7.28318 15.4464 7.13084L15.7042 6.84959L16.6945 7.6699C17.2335 8.12693 17.7433 8.51365 17.8195 8.53123C18.1007 8.60154 18.2472 8.49607 18.8742 7.77537C19.214 7.38279 19.5656 7.00193 19.6476 6.93162C19.9171 6.7031 20.1984 6.70896 20.5382 6.9492Z" fill="#201F1D"/>
<path id="Vector_5" d="M15.3995 9.36324C15.2178 9.39254 15.0303 9.65035 15.0303 9.86715C15.0303 9.96676 15.0948 10.3008 15.1768 10.6055C15.3409 11.2383 15.4405 11.3672 15.8038 11.3672C16.0733 11.3672 16.3194 11.1504 16.3194 10.9043C16.3135 10.6055 15.9737 9.43355 15.8916 9.43355C15.8858 9.43355 15.7979 9.41012 15.7041 9.38668C15.6045 9.36324 15.4698 9.35152 15.3995 9.36324Z" fill="#201F1D"/>
<path id="Vector_6" d="M16.0847 12.0293C16.0027 12.0703 15.9031 12.1816 15.8562 12.2754C15.78 12.4277 15.8035 12.5742 16.1433 14.0273C16.3484 14.9004 16.5476 15.6855 16.5886 15.7676C16.6824 15.9492 16.7761 15.9961 17.0808 15.9961C17.3503 15.9961 17.5496 15.791 17.5496 15.5098C17.5496 15.416 17.3914 14.6484 17.1921 13.8047C16.8113 12.1699 16.7585 12.0469 16.407 11.9824C16.3132 11.9648 16.1667 11.9824 16.0847 12.0293Z" fill="#201F1D"/>
<path id="Vector_7" d="M19.7058 15.8203C19.4245 15.8789 19.0495 15.9961 18.8679 16.0723C18.4401 16.2715 17.9948 16.7285 17.7722 17.1973C17.4558 17.877 17.4616 17.9707 18.1354 22.4121C18.4577 24.5742 18.7565 26.4316 18.7917 26.543C18.944 27.0293 19.3366 27.3047 19.864 27.3047C20.1921 27.3047 20.3796 27.2285 22.7351 26.1914C24.1237 25.5762 25.2897 25.0312 25.3308 24.9727C25.3718 24.9199 25.4187 24.8145 25.4421 24.7383C25.4772 24.6035 23.1042 17.4316 22.8698 16.9688C22.7175 16.6641 22.2839 16.207 21.9792 16.0312C21.3991 15.6914 20.655 15.6211 19.7058 15.8203ZM21.1296 16.8223C21.405 16.916 21.6862 17.1387 21.8562 17.3906C21.9675 17.5664 24.2292 24.1582 24.2292 24.3164C24.2292 24.3574 23.1159 24.8672 23.0925 24.832C23.0808 24.8203 22.6472 23.5488 22.1257 22.002C21.5983 20.4551 21.1003 19.0605 21.0183 18.9023C20.8073 18.5098 20.3269 18 19.7351 17.5371C19.4655 17.3262 19.2487 17.1387 19.2487 17.1094C19.2487 17.0508 19.6999 16.8984 20.0983 16.8223C20.5144 16.7461 20.9011 16.7461 21.1296 16.8223ZM19.1608 18.4629C19.6589 18.8672 19.9694 19.1953 20.1159 19.4941C20.1804 19.6172 20.655 20.9707 21.1706 22.5059L22.114 25.2949L21.03 25.7754C19.9636 26.2383 19.7761 26.3027 19.7761 26.1973C19.7761 26.168 19.5124 24.3984 19.1901 22.2656C18.8679 20.1387 18.6042 18.3164 18.6042 18.2168C18.6042 18.0059 18.6042 18.0059 19.1608 18.4629Z" fill="#201F1D"/>
<path id="Vector_8" d="M4.23146 8.05069C3.94435 8.15616 3.83888 8.25577 3.41114 8.81241C2.58497 9.89639 1.70021 11.455 1.31349 12.5097C1.13185 13.0077 1.12013 13.0839 1.12013 13.828C1.11427 14.5077 1.13185 14.6659 1.24318 14.9648C1.81154 16.4706 3.20021 17.3671 4.80568 17.2616C5.77247 17.203 6.4756 16.8866 7.12599 16.2304C8.06935 15.2753 8.34474 13.9628 7.88771 12.6093C7.43654 11.2616 5.7256 8.47842 5.1338 8.12686C4.89357 7.98624 4.50099 7.95108 4.23146 8.05069ZM5.42091 10.2011C6.34669 11.5956 6.96193 12.9023 7.04396 13.6523C7.07911 14.0155 6.96193 14.5605 6.76271 14.953C6.58107 15.3046 6.05958 15.8027 5.68458 15.9726C4.41896 16.5527 2.96583 16.0605 2.36818 14.8476C2.20411 14.5194 2.16896 14.373 2.15138 13.9511C2.12794 13.5175 2.15138 13.3827 2.28029 12.9843C2.58497 12.0761 3.37599 10.6581 4.17286 9.58584L4.55372 9.07608L4.70021 9.21084C4.78224 9.28702 5.1045 9.73233 5.42091 10.2011Z" fill="#201F1D"/>
</g>
</g>
</g>
</g>
<defs>
<clipPath id="clip0_249_6926">
<rect width="31" height="30" fill="white" transform="translate(0.834961)"/>
</clipPath>
</defs>
</svg>
