<svg width="31" height="30" viewBox="0 0 31 30" fill="none" xmlns="http://www.w3.org/2000/svg">
<g id="specification-icon-5.svg" clip-path="url(#clip0_249_6847)">
<path id="Vector" d="M1.47168 7.49562L3.4702 6.62082H4.65683L6.5929 7.49562L5.40627 9.24512L4.65683 10.5572H2.09622V9.24512L1.47168 7.49562Z" fill="#FFFBEF" stroke="#201F1D"/>
<path id="Vector_2" d="M24.4551 7.58931L26.4536 6.71451H27.6403L29.5763 7.58931L28.3897 9.33881L27.6403 10.6509H25.0797V9.33881L24.4551 7.58931Z" fill="#FFFBEF" stroke="#201F1D"/>
<path id="Vector_3" d="M15.3406 24.4595C16.2546 24.4595 16.9956 23.7182 16.9956 22.8037C16.9956 21.8893 16.2546 21.1479 15.3406 21.1479C14.4265 21.1479 13.6855 21.8893 13.6855 22.8037C13.6855 23.7182 14.4265 24.4595 15.3406 24.4595Z" fill="#FFFBEF"/>
<path id="Vector_4" d="M3.51386 5.07124C3.45765 5.11498 3.22657 5.53361 2.9955 5.99594C2.77066 6.45834 2.57705 6.84574 2.57081 6.85824C2.55832 6.86444 2.12114 6.93324 1.59653 7.00824C0.48485 7.16444 0.334961 7.24564 0.334961 7.64554C0.334961 7.87044 0.384924 7.93914 1.05318 8.61394L1.7714 9.33874L1.62776 10.151C1.43415 11.2007 1.43415 11.3757 1.61526 11.5444C1.86508 11.7756 2.10865 11.7256 3.02048 11.2507L3.84487 10.8196L4.68175 11.2507C5.63105 11.7443 5.87462 11.7881 6.08696 11.5194C6.24934 11.3132 6.24934 11.157 6.06198 10.151L5.91834 9.33874L6.63031 8.62024C7.31106 7.93294 7.34229 7.88924 7.34229 7.63924C7.34229 7.25184 7.19864 7.16444 6.27432 7.03314C5.84964 6.97694 5.41246 6.90824 5.30629 6.88944C5.12517 6.86444 5.08146 6.80204 4.71922 6.01474C4.50063 5.55235 4.26331 5.13372 4.19461 5.08373C4.03848 4.97751 3.65751 4.97127 3.51386 5.07124ZM4.10093 7.19564C4.21959 7.43934 4.36324 7.68924 4.43193 7.75174C4.50688 7.82044 4.7442 7.88924 5.10019 7.93914L5.65603 8.01414L5.24384 8.44524L4.82539 8.87644L4.86911 9.35754C4.88785 9.61994 4.92532 9.91984 4.9503 10.0136L4.98777 10.1948L4.4819 9.93864C4.20086 9.79494 3.91357 9.68244 3.84487 9.68244C3.77617 9.68244 3.48888 9.79494 3.20784 9.93864L2.70196 10.1948L2.73943 10.0136C2.76442 9.91984 2.80189 9.61994 2.82062 9.35754L2.86434 8.87644L2.4459 8.44524L2.03371 8.01414L2.58955 7.93914C2.94553 7.88924 3.18286 7.82044 3.2578 7.75174C3.3265 7.68924 3.47015 7.43934 3.58881 7.19564C3.70747 6.94574 3.82613 6.74574 3.84487 6.74574C3.8636 6.74574 3.98227 6.94574 4.10093 7.19564Z" fill="#201F1D"/>
<path id="Vector_5" d="M26.4965 5.07124C26.4403 5.11498 26.2092 5.53361 25.9782 5.99594C25.7533 6.45834 25.5597 6.84574 25.5535 6.85824C25.541 6.86444 25.1101 6.93324 24.5854 7.00824C23.4613 7.16444 23.3301 7.23314 23.3301 7.63924C23.3301 7.88924 23.3613 7.93294 24.0421 8.62024L24.7541 9.33874L24.6104 10.151C24.4168 11.2007 24.4168 11.3757 24.5979 11.5444C24.8477 11.7756 25.0913 11.7256 26.0031 11.2507L26.8275 10.8196L27.6644 11.2507C28.6137 11.7443 28.8573 11.7881 29.0696 11.5194C29.232 11.3132 29.232 11.157 29.0446 10.151L28.901 9.33874L29.613 8.62024C30.2937 7.93294 30.325 7.88924 30.325 7.63924C30.325 7.25184 30.1813 7.16444 29.257 7.03314C28.8323 6.97694 28.3951 6.90824 28.289 6.88944C28.1078 6.86444 28.0641 6.80204 27.7019 6.01474C27.4833 5.55235 27.246 5.13372 27.1773 5.08373C27.0211 4.97751 26.6402 4.97127 26.4965 5.07124ZM27.0836 7.19564C27.2023 7.43934 27.3459 7.68924 27.4146 7.75174C27.4895 7.82044 27.7269 7.88924 28.0829 7.93914L28.6387 8.01414L28.2265 8.44524L27.8081 8.87644L27.8518 9.35754C27.8705 9.61994 27.908 9.91984 27.933 10.0136L27.9704 10.1948L27.4646 9.93864C27.1835 9.79494 26.8962 9.68244 26.8275 9.68244C26.7588 9.68244 26.4715 9.79494 26.1905 9.93864L25.6846 10.1948L25.7221 10.0136C25.7471 9.91984 25.7846 9.61994 25.8033 9.35754L25.847 8.87644L25.4286 8.44524L25.0164 8.01414L25.5722 7.93914C25.9282 7.88924 26.1655 7.82044 26.2405 7.75174C26.3092 7.68924 26.4528 7.43934 26.5715 7.19564C26.6901 6.94574 26.8088 6.74574 26.8275 6.74574C26.8463 6.74574 26.9649 6.94574 27.0836 7.19564Z" fill="#201F1D"/>
<path id="Vector_6" d="M13.3881 10.1509C9.03504 10.7445 5.23784 13.1251 2.82712 16.7553C1.30949 19.0422 0.453873 21.6477 0.366438 24.2782C0.316475 25.6216 0.247776 25.5529 1.59678 25.5529C2.51485 25.5529 2.60853 25.5404 2.72095 25.4279C2.88957 25.2592 2.88957 24.8468 2.72095 24.6781C2.61478 24.5719 2.51485 24.5531 2.00273 24.5531H1.40942V24.222C1.40942 23.2598 1.84659 21.2416 2.32124 20.0544C2.54608 19.4733 3.00824 18.4923 3.0582 18.4923C3.09567 18.4923 4.98802 19.6108 5.04423 19.667C5.07546 19.6983 5.00052 19.9357 4.88185 20.1981C4.2136 21.6602 3.85136 23.2348 3.84512 24.6594C3.84512 25.4216 3.92006 25.5529 4.34475 25.5529C4.80691 25.5529 4.86936 25.4029 4.93182 24.1595C4.95055 23.8283 5.03799 23.2223 5.13167 22.8161C5.73123 20.1231 7.36127 17.7738 9.65333 16.2867C14.506 13.1501 20.9575 14.5247 24.0927 19.3671C25.0358 20.8167 25.6603 22.6349 25.7415 24.1595C25.7915 25.0842 25.8289 25.3029 25.9601 25.4341C26.0725 25.5466 26.1849 25.5529 28.0773 25.5529C30.5879 25.5529 30.3568 25.6841 30.3069 24.2782C30.2319 22.2475 29.7073 20.2481 28.733 18.3111C28.0148 16.8678 27.2591 15.8056 26.11 14.6247C24.38 12.8439 22.5064 11.6443 20.1956 10.8383C19.4524 10.5758 19.1589 10.5571 18.9715 10.7633C18.8154 10.9257 18.7841 11.2819 18.9153 11.4506C18.9528 11.5068 19.34 11.6755 19.7709 11.8255C20.2018 11.9754 20.8701 12.2441 21.2511 12.4253L21.9443 12.7565L21.351 13.7687C21.0262 14.3185 20.7452 14.7871 20.7389 14.7996C20.7264 14.8059 20.3829 14.6747 19.977 14.506C18.7529 13.9811 17.5226 13.6687 16.3672 13.5812L15.8363 13.5375V12.3191V11.1007L16.3859 11.1382C16.6857 11.1632 17.0729 11.2007 17.254 11.2194C17.5413 11.2569 17.5913 11.2444 17.7411 11.0944C17.8723 10.9632 17.9035 10.882 17.8848 10.6696C17.8598 10.3072 17.6849 10.2009 16.9917 10.1197C16.2173 10.0322 14.1251 10.051 13.3881 10.1509ZM14.837 12.3316V13.5375L14.3062 13.5812C13.1758 13.6625 11.908 13.9874 10.7963 14.4685C10.4465 14.6184 10.1467 14.7434 10.128 14.7434C10.0905 14.7434 8.96634 12.7565 8.96634 12.6877C8.96634 12.6253 9.91564 12.1816 10.5902 11.9317C11.7331 11.5131 13.513 11.1382 14.4498 11.1257L14.837 11.1194V12.3316ZM8.56663 14.2248C8.87265 14.7621 9.12872 15.237 9.13496 15.2683C9.14121 15.3057 8.90388 15.5057 8.6041 15.7119C7.76098 16.293 6.35576 17.7301 5.77494 18.6173L5.67502 18.7673L4.63828 18.1549C3.70147 17.6051 3.60155 17.5301 3.664 17.4239C3.69523 17.3552 3.9388 17.0178 4.20735 16.6679C4.76944 15.9181 5.68126 14.9558 6.33703 14.406C6.92409 13.9186 7.84841 13.2501 7.94209 13.2438C7.97332 13.2438 8.25436 13.6875 8.56663 14.2248ZM23.7992 13.9874C24.4549 14.4872 25.2231 15.2058 25.7727 15.8431C26.2911 16.4367 27.1405 17.5801 27.1405 17.6863C27.1405 17.7363 25.1919 18.8672 25.1045 18.8672C25.0732 18.861 24.8921 18.6298 24.7048 18.3486C24.1614 17.5426 22.6563 16.0743 21.7757 15.4932L21.632 15.3995L22.2503 14.3623L22.8624 13.3188L23.1434 13.5125C23.2995 13.6187 23.5931 13.8312 23.7992 13.9874ZM28.071 19.4046C28.7518 20.9604 29.2639 23.0473 29.2639 24.2845V24.5531H28.0523H26.8469L26.8032 24.022C26.722 22.8974 26.366 21.504 25.8851 20.4168C25.7477 20.1044 25.6478 19.842 25.6603 19.8295C25.704 19.7795 27.6713 18.6798 27.7088 18.6798C27.7338 18.6798 27.8961 19.0047 28.071 19.4046Z" fill="#201F1D"/>
<path id="Vector_7" d="M18.1902 16.2055C18.0591 16.2555 17.8904 16.3429 17.8217 16.4117C17.753 16.4742 17.0161 17.3802 16.1979 18.4299C14.8052 20.1981 14.6803 20.3418 14.4118 20.4418C13.7498 20.6917 13.119 21.379 12.9191 22.0476C12.763 22.5849 12.8254 23.4284 13.0565 23.9033C13.2876 24.3782 13.7685 24.853 14.2431 25.0905C14.5929 25.2592 14.6678 25.2717 15.3361 25.2717C16.0043 25.2717 16.0793 25.2592 16.429 25.0905C16.9099 24.853 17.3846 24.3782 17.6219 23.8971C17.7905 23.5534 17.803 23.4659 17.8155 22.7724L17.8217 22.0226L18.7336 19.7607C19.3893 18.1362 19.6454 17.4239 19.6454 17.2427C19.6454 16.9615 19.483 16.5929 19.2832 16.4117C19.1395 16.2805 18.7398 16.1243 18.5525 16.1243C18.4838 16.1243 18.3214 16.1617 18.1902 16.2055ZM17.8592 19.0609C17.4595 20.0731 17.1223 20.9042 17.1098 20.9167C17.1035 20.9292 16.9474 20.8417 16.76 20.7167C16.5789 20.598 16.3478 20.4793 16.2542 20.4543C16.148 20.4293 16.0918 20.3793 16.1105 20.3356C16.1542 20.2169 18.54 17.1802 18.5649 17.2052C18.5774 17.2177 18.2589 18.055 17.8592 19.0609ZM15.8857 21.4665C16.4165 21.6852 16.7725 22.2163 16.7725 22.8036C16.7725 24.072 15.2611 24.7156 14.3431 23.8471C13.4125 22.9598 14.037 21.3728 15.3236 21.3665C15.5047 21.3665 15.7545 21.4103 15.8857 21.4665Z" fill="#201F1D"/>
<path id="Vector_8" d="M14.9618 22.4287C14.8806 22.5099 14.8369 22.6349 14.8369 22.8036C14.8369 23.1347 15.0055 23.3034 15.3365 23.3034C15.6675 23.3034 15.8361 23.1347 15.8361 22.8036C15.8361 22.4724 15.6675 22.3037 15.3365 22.3037C15.1679 22.3037 15.043 22.3474 14.9618 22.4287Z" fill="#201F1D"/>
<path id="Vector_9" d="M14.1187 16.5992C13.6877 16.6554 12.6135 16.9553 12.1139 17.1553C10.4339 17.8301 8.92871 19.1235 8.00439 20.6855C7.5797 21.3916 7.14877 22.4725 7.1113 22.9224C7.08007 23.2348 7.09256 23.3035 7.21122 23.4223C7.36111 23.5722 7.75457 23.6035 7.9232 23.4722C7.97941 23.4348 8.1293 23.1036 8.24796 22.7475C8.67889 21.5103 9.17852 20.7105 10.0841 19.7983C11.4269 18.4487 13.2006 17.6614 14.993 17.6114C15.7175 17.5927 15.8986 17.4739 15.8986 17.0366C15.8986 16.8991 15.8486 16.7804 15.755 16.6929C15.6238 16.5679 15.5489 16.5555 14.9555 16.5617C14.5996 16.5679 14.2248 16.5867 14.1187 16.5992Z" fill="#201F1D"/>
<path id="Vector_10" d="M20.2454 18.6237C20.1205 18.7236 20.083 18.8049 20.083 19.0048C20.083 19.236 20.1268 19.3047 20.6389 19.8358C21.5195 20.7606 22.1315 21.7728 22.4625 22.8725C22.6249 23.4161 22.7498 23.5535 23.0683 23.5535C23.3806 23.5535 23.5805 23.3536 23.5805 23.0412C23.5805 22.5725 22.9747 21.1292 22.4376 20.3357C22.0566 19.7733 21.4008 19.011 21.0573 18.7361C20.7138 18.4612 20.4952 18.43 20.2454 18.6237Z" fill="#201F1D"/>
</g>
<defs>
<clipPath id="clip0_249_6847">
<rect width="30" height="30" fill="white" transform="translate(0.334961)"/>
</clipPath>
</defs>
</svg>
