<svg width="32" height="30" viewBox="0 0 32 30" fill="none" xmlns="http://www.w3.org/2000/svg">
<g id="specification-icon-3.svg">
<g id="Clip path group">
<mask id="mask0_249_6825" style="mask-type:luminance" maskUnits="userSpaceOnUse" x="1" y="0" width="31" height="30">
<g id="clip0_96_13467">
<path id="Vector" d="M31.335 0H1.33496V30H31.335V0Z" fill="white"/>
</g>
</mask>
<g mask="url(#mask0_249_6825)">
<g id="Group">
<path id="Vector_2" d="M23.1161 17.6953H10.124V19.8633H23.1161V17.6953Z" fill="#FFFBEF"/>
<path id="Vector_3" d="M10.5342 13.1836H8.4248V25.2539H10.5342V13.1836Z" fill="#FFFBEF"/>
<path id="Vector_4" d="M23.7178 12.9492H21.6084V24.9609H23.7178V12.9492Z" fill="#FFFBEF"/>
<path id="Vector_5" d="M16.9209 20.625H15.4561V25.2539H16.9209V20.625Z" fill="#FFFBEF"/>
<path id="Vector_6" d="M14.3516 6.73828H18.0346L17.2142 19.8633H15.1635L14.3516 6.73828Z" fill="#FFFBEF"/>
<path id="Vector_7" d="M15.0343 0.111294C14.0265 0.439419 13.3117 1.31833 13.1652 2.40817C13.1242 2.69528 13.1066 3.40427 13.1242 4.18356C13.1535 5.63083 13.2062 5.87692 13.6105 6.4863C13.8039 6.77927 13.8156 6.82614 13.8507 7.46482L13.8917 8.13864L10.2062 8.15622L6.52061 8.1738L6.09874 8.32614C5.19053 8.66013 4.44053 9.32224 4.02452 10.166C3.60264 11.0215 3.62022 10.5937 3.62022 19.0722C3.62022 27.5742 3.60264 27.1172 4.03624 28.0078C4.48155 28.9218 5.40147 29.6601 6.40342 29.9121C6.70811 29.9883 7.98546 30 16.3234 30C26.8761 30 26.1964 30.0234 26.964 29.6367C27.7023 29.2675 28.2589 28.705 28.6339 27.9668C28.9796 27.2812 28.9914 27.1465 28.9914 24.0761V21.2871L28.8449 21.1347C28.6632 20.959 28.4581 20.9121 28.1945 20.9883C27.7843 21.0996 27.796 21.0351 27.7609 24.1699L27.7316 26.9824L27.5441 27.3691C27.3156 27.8379 26.7824 28.3593 26.3371 28.5644C26.1613 28.6465 25.8156 28.7402 25.5578 28.7695C25.2472 28.8105 22.089 28.8281 15.9835 28.8164L6.87217 28.7988L6.50889 28.6582C5.82335 28.3886 5.28428 27.8554 5.00889 27.1875L4.87999 26.8652L4.86241 19.2246C4.84483 10.7812 4.82725 11.2031 5.21983 10.5527C5.46006 10.1543 5.82335 9.832 6.30967 9.59177L6.69639 9.40427L10.3292 9.38669L13.9679 9.36911L14.1554 12.873C14.2609 14.8008 14.3664 16.5527 14.3839 16.7695L14.4191 17.1679H12.9132H11.4132V15.5976C11.4132 14.0097 11.3605 13.4238 11.2023 13.1133C11.0499 12.8203 10.7042 12.4804 10.3937 12.3164C10.1417 12.1875 10.0187 12.164 9.59678 12.164C9.16905 12.1582 9.05772 12.1816 8.80577 12.3164C8.42491 12.5156 8.06163 12.9082 7.921 13.2773C7.81553 13.5527 7.80967 13.7988 7.80967 19.1015V24.6386L7.96202 24.9668C8.27256 25.623 8.77061 25.9629 9.4796 26.0039C10.2706 26.0449 10.8917 25.6758 11.2316 24.9609L11.3839 24.6386L11.4015 22.6875L11.4249 20.7422H12.9718H14.5187V22.6406C14.5187 24.9023 14.5304 24.9785 15.046 25.4941C15.4562 25.9101 15.8136 26.0449 16.4171 26.0039C17.0968 25.957 17.6066 25.623 17.8996 25.0312L18.0636 24.6972L18.0812 22.7168L18.0988 20.7422H19.6457H21.1925L21.2101 22.7168L21.2277 24.6972L21.3917 25.0312C21.6847 25.623 22.1945 25.957 22.8742 26.0039C23.4777 26.0449 23.8292 25.9101 24.2511 25.4941C24.8078 24.9316 24.7726 25.3945 24.7726 19.0488V13.5058L24.6085 13.1543C24.421 12.7617 24.1222 12.4687 23.7238 12.2812C23.3312 12.1054 22.6164 12.1113 22.2472 12.2929C21.8898 12.4687 21.5851 12.7675 21.3859 13.1425L21.2277 13.4472L21.2101 15.3105L21.1925 17.1679H19.6925H18.1925L18.2277 16.6816C18.2453 16.4179 18.3449 14.7246 18.4445 12.9199C18.5441 11.1152 18.6378 9.58005 18.6554 9.50388L18.6847 9.36911L22.2999 9.38669L25.9152 9.40427L26.3019 9.58591C26.9699 9.90232 27.4152 10.3945 27.6378 11.0625C27.755 11.4023 27.7609 11.5488 27.7609 13.875C27.7609 15.2285 27.7785 16.4121 27.796 16.5175C27.8898 16.9922 28.4757 17.1621 28.8214 16.8222L28.9914 16.6523V13.9629C28.9914 10.9746 28.9855 10.9336 28.5988 10.1367C28.4406 9.80271 28.2765 9.58591 27.9132 9.22849C27.3683 8.68942 26.923 8.43161 26.2609 8.26169C25.8332 8.15036 25.6046 8.1445 22.2648 8.1445H18.7257L18.7667 7.4531C18.8078 6.8613 18.8312 6.74411 18.9425 6.60935C19.1359 6.38083 19.3585 5.88864 19.4347 5.5195C19.5343 5.03317 19.5167 2.5195 19.4113 2.05661C19.2296 1.28317 18.6847 0.621059 17.923 0.246059L17.4835 0.0292627L16.4289 0.0175439C15.5265 0.0058252 15.3156 0.0175439 15.0343 0.111294ZM17.2902 1.30661C17.5714 1.4238 17.9582 1.78708 18.1105 2.07419C18.2335 2.3027 18.2394 2.38474 18.2394 3.83786C18.2394 5.56638 18.2277 5.61911 17.7414 6.05857C17.3488 6.41013 17.1671 6.46286 16.3351 6.46872C15.6964 6.46872 15.5617 6.45114 15.3097 6.33396C14.9406 6.16989 14.7238 5.96481 14.5304 5.59567L14.3722 5.3027V3.83786C14.3722 2.41403 14.3781 2.36716 14.5128 2.10934C14.7707 1.61716 15.1281 1.34177 15.6496 1.23044C15.9953 1.15427 17.0441 1.207 17.2902 1.30661ZM15.8957 7.70505C16.1242 7.72849 16.5695 7.71677 16.8917 7.68747C17.214 7.65232 17.4894 7.6406 17.5011 7.65232C17.548 7.69333 16.8566 19.1425 16.7921 19.2949C16.6281 19.7168 16.0246 19.7461 15.8078 19.3418C15.7667 19.2597 15.1046 8.29099 15.1046 7.68161C15.1046 7.62888 15.1632 7.6113 15.298 7.63474C15.3976 7.65817 15.673 7.68747 15.8957 7.70505ZM9.90733 13.4765C9.99522 13.5468 10.089 13.6992 10.1241 13.8164C10.1593 13.9453 10.1827 14.8359 10.1827 16.0136C10.1827 17.2617 10.2062 18.0351 10.2413 18.1113C10.3878 18.3808 10.5226 18.3984 12.5558 18.3984C14.3312 18.3984 14.4601 18.4043 14.466 18.498C14.466 18.5566 14.4894 18.8086 14.507 19.0547L14.5539 19.5117H12.5441H10.5401L10.3761 19.6523L10.212 19.7929L10.1827 22.1191L10.1534 24.4453L9.96006 24.6152C9.6085 24.9258 9.13975 24.7675 9.046 24.3105C8.98155 23.9883 9.00499 14.0508 9.06944 13.8164C9.14561 13.5586 9.37413 13.3593 9.59678 13.3593C9.68467 13.3593 9.8253 13.4121 9.90733 13.4765ZM23.4132 13.5644L23.5421 13.7168V19.0781V24.4453L23.3722 24.6152C23.091 24.8906 22.6925 24.8379 22.5167 24.4922C22.4406 24.3515 22.4289 23.9648 22.4289 22.0898V19.8515L22.2589 19.6816L22.089 19.5117H20.0734H18.0578L18.0812 19.084C18.0871 18.8554 18.1105 18.6035 18.1281 18.5273L18.1515 18.3984H20.0324C21.6261 18.3984 21.9425 18.3867 22.1066 18.3047C22.2121 18.2578 22.3234 18.1699 22.3527 18.1172C22.3761 18.0644 22.4113 17.0449 22.4289 15.8613L22.4582 13.6992L22.6574 13.5234C22.8214 13.3769 22.8859 13.3535 23.0675 13.3828C23.1906 13.4004 23.3312 13.4765 23.4132 13.5644ZM16.8624 22.5761C16.8624 24.0175 16.8449 24.3515 16.7746 24.4922C16.5988 24.8379 16.2003 24.8906 15.9191 24.6152L15.7492 24.4453V22.6347V20.83H16.3058H16.8624V22.5761Z" fill="#201F1D"/>
<path id="Vector_8" d="M9.15732 10.4473C9.04013 10.541 8.99326 10.6523 8.96982 10.8457C8.94052 11.0859 8.9581 11.1387 9.11044 11.3086C9.53232 11.7773 10.3116 11.3613 10.1593 10.752C10.0538 10.3301 9.4913 10.1602 9.15732 10.4473Z" fill="#201F1D"/>
<path id="Vector_9" d="M22.7331 10.4589C22.3933 10.746 22.4636 11.2909 22.8737 11.4609C23.3015 11.6425 23.7175 11.373 23.7175 10.9159C23.7175 10.3827 23.1433 10.1132 22.7331 10.4589Z" fill="#201F1D"/>
<path id="Vector_10" d="M27.9833 18.6328C27.8193 18.7969 27.8075 18.8438 27.8368 19.0898C27.8779 19.4473 28.0771 19.6289 28.4228 19.6289C28.7157 19.6289 28.8915 19.5234 28.9911 19.2832C29.1669 18.8555 28.8915 18.457 28.4228 18.457C28.2118 18.457 28.1298 18.4922 27.9833 18.6328Z" fill="#201F1D"/>
<path id="Vector_11" d="M9.22769 26.7246C9.17496 26.7539 9.08707 26.8594 9.04019 26.9531C8.81168 27.3926 9.06949 27.832 9.56168 27.832C9.96011 27.832 10.1535 27.6445 10.1535 27.2461C10.1535 26.9883 10.13 26.9238 9.98941 26.8008C9.81363 26.6484 9.42691 26.6074 9.22769 26.7246Z" fill="#201F1D"/>
<path id="Vector_12" d="M15.8958 26.8008C15.4915 27.2051 15.7493 27.832 16.3177 27.832C16.6809 27.832 16.9212 27.5977 16.9212 27.2461C16.9212 26.8887 16.6809 26.6602 16.3059 26.6602C16.1009 26.6602 16.0071 26.6953 15.8958 26.8008Z" fill="#201F1D"/>
<path id="Vector_13" d="M22.71 26.8184C22.5108 27.0352 22.4639 27.2578 22.5694 27.5039C22.6748 27.75 22.8154 27.832 23.1494 27.832C23.3721 27.832 23.4365 27.8027 23.5654 27.6504C23.6709 27.5273 23.7178 27.4043 23.7178 27.2461C23.7178 27.0879 23.6709 26.9648 23.5654 26.8418C23.4365 26.6836 23.3721 26.6602 23.1377 26.6602C22.9092 26.6602 22.833 26.6895 22.71 26.8184Z" fill="#201F1D"/>
</g>
</g>
</g>
</g>
</svg>
