<svg width="29" height="30" viewBox="0 0 29 30" fill="none" xmlns="http://www.w3.org/2000/svg">
<g id="specification-icon-7.svg" clip-path="url(#clip0_249_6864)">
<path id="Vector" d="M24.3569 2.573H4.13825C2.50374 2.573 1.17871 3.89803 1.17871 5.53254C1.17871 7.16705 2.50374 8.49208 4.13825 8.49208H24.3569C25.9914 8.49208 27.3164 7.16705 27.3164 5.53254C27.3164 3.89803 25.9914 2.573 24.3569 2.573Z" fill="#FFFBEF"/>
<path id="Vector_2" d="M5.75019 0.0588459C5.21103 0.275682 4.92972 0.767963 4.92972 1.50052V1.98108L3.71661 1.99866C2.52107 2.01624 2.49177 2.0221 2.146 2.18034C1.49549 2.48508 1.03837 3.05941 0.891859 3.74508C0.839114 3.98536 0.827393 7.06797 0.839114 16.2044L0.856696 28.3415L1.09112 28.8045C1.36656 29.3378 1.73577 29.6835 2.26321 29.8769L2.59139 30L14.4413 29.9883L26.2912 29.9707L26.6252 29.8125C27.0648 29.6073 27.4574 29.203 27.686 28.7224L27.8735 28.3298L27.8911 16.1986C27.9087 3.46964 27.9145 3.70406 27.6567 3.1942C27.4633 2.81327 27.0003 2.36787 26.5959 2.1862C26.2384 2.01624 26.215 2.01624 25.0195 1.99866L23.8005 1.98108V1.49466C23.8005 0.885172 23.6188 0.474939 23.2262 0.199497C22.9917 0.041264 22.9214 0.0236839 22.4291 0.00610197C21.7845 -0.0173393 21.5383 0.0705665 21.2043 0.463219C20.964 0.74452 20.8702 1.06685 20.8702 1.60015V1.98694H14.3651H7.85996V1.60015C7.85996 1.06685 7.76619 0.74452 7.52591 0.463219C7.20945 0.0940098 6.95745 -0.00561869 6.38312 0.000240691C6.11354 0.000240691 5.83224 0.0295433 5.75019 0.0588459ZM6.79335 1.08443C6.89884 1.2075 6.92228 1.30127 6.92228 1.61187V1.98694H6.39484H5.8674V1.61187C5.8674 1.13717 5.90256 1.05513 6.12526 0.955498C6.35968 0.85001 6.6234 0.902754 6.79335 1.08443ZM22.5639 0.937916C22.8101 1.02582 22.8628 1.14303 22.8628 1.60015V1.98694H22.3354H21.8079V1.61187C21.8079 1.20164 21.9369 0.961359 22.1771 0.914474C22.2475 0.902754 22.3236 0.885172 22.3412 0.879313C22.3588 0.879313 22.4584 0.902754 22.5639 0.937916ZM4.94144 3.79197C4.95903 4.63001 4.96489 4.67104 5.12312 4.90546C5.41614 5.35671 6.04907 5.63215 6.44759 5.49736C6.65856 5.42118 6.74647 5.29225 6.74647 5.04611C6.74647 4.83513 6.55307 4.65346 6.26591 4.60071C5.92014 4.53625 5.8674 4.41318 5.8674 3.61615V2.92462H13.3688H20.8702V3.61615C20.8702 4.47764 20.9582 4.81169 21.2629 5.10471C21.5618 5.38601 21.8314 5.51495 22.1596 5.52667C22.5229 5.53253 22.687 5.39774 22.687 5.08127C22.687 4.81755 22.5229 4.62415 22.3002 4.62415C22.2123 4.62415 22.0775 4.55383 21.9779 4.4542C21.8079 4.28425 21.8079 4.27253 21.8079 3.60443V2.92462H23.8767C26.1798 2.92462 26.2033 2.93048 26.5959 3.34071C26.9476 3.71578 26.9651 3.82713 26.9651 6.15374V8.25765H17.5356H8.11196L7.95373 8.38072C7.74861 8.54481 7.74275 8.84955 7.94787 9.04881L8.08852 9.19532H17.5298H26.9651V14.9503C26.9651 20.6467 26.9651 20.7053 26.8421 20.9514C26.7717 21.1038 26.6311 21.262 26.508 21.3382C26.297 21.4672 26.2384 21.473 24.4451 21.5023L22.5932 21.5316L22.2064 21.725C21.7493 21.9477 21.4504 22.2759 21.2746 22.733C21.175 22.9967 21.1633 23.1901 21.1633 24.6728C21.1633 25.675 21.1398 26.4134 21.0988 26.5716C21.005 26.935 20.7003 27.2221 20.3194 27.3042C20.1142 27.3452 17.3305 27.3628 11.4056 27.3511L2.79065 27.3335L2.50935 27.1928C2.2046 27.0463 1.97018 26.7767 1.84711 26.4427C1.78265 26.261 1.77093 24.667 1.76507 17.7047V9.19532H4.22061C6.54135 9.19532 6.682 9.18946 6.81093 9.08397C7.00433 8.92574 7.00433 8.52723 6.81093 8.369C6.682 8.26351 6.54135 8.25765 4.22061 8.25765H1.76507V6.15374C1.76507 3.82713 1.78265 3.71578 2.13428 3.34071C2.48591 2.9715 2.66172 2.92462 3.85726 2.92462H4.918L4.94144 3.79197ZM24.1814 24.5498C23.0269 25.7043 22.0775 26.6478 22.0716 26.6419C22.0716 26.6361 22.0834 25.8273 22.1009 24.8428C22.1302 23.1081 22.1361 23.0495 22.2592 22.8737C22.3354 22.7682 22.5053 22.6334 22.6401 22.5631C22.8804 22.4459 22.98 22.44 24.5916 22.44H26.2912L24.1814 24.5498ZM26.9065 28.1188C26.8186 28.4587 26.5373 28.7986 26.2209 28.951L25.9396 29.0916L14.5761 29.1092C7.03949 29.1151 3.10126 29.1033 2.88442 29.0623C2.7086 29.0272 2.46246 28.9393 2.33939 28.8572C2.1167 28.7107 1.8647 28.3356 1.80023 28.0543L1.76507 27.8961L2.09911 28.0543L2.43902 28.2126H11.9916H21.5442L21.8958 28.0192C22.1771 27.8668 22.7339 27.3452 24.5916 25.4874L26.9358 23.1432L26.9534 25.5226C26.9593 26.9877 26.9417 27.984 26.9065 28.1188Z" fill="#201F1D"/>
<path id="Vector_3" d="M3.93368 11.0003C3.80475 11.0706 3.67582 11.2054 3.59963 11.3636C3.4707 11.6098 3.46484 11.6918 3.46484 12.8229C3.46484 14.2118 3.51173 14.4052 3.92782 14.6338C4.1388 14.7568 4.2267 14.7627 5.41052 14.7627C6.78187 14.7627 6.92838 14.7334 7.18624 14.3876C7.29759 14.2353 7.30345 14.1415 7.30345 12.8287C7.30345 11.5043 7.29759 11.4222 7.18038 11.264C6.93424 10.9241 6.78773 10.8948 5.3988 10.8948C4.29117 10.8948 4.10949 10.9065 3.93368 11.0003ZM6.39508 12.8287V13.825H5.3988H4.40252V12.8287V11.8325H5.3988H6.39508V12.8287Z" fill="#201F1D"/>
<path id="Vector_4" d="M9.92255 10.9944C9.81706 11.0472 9.67054 11.1702 9.60022 11.2699C9.47715 11.4398 9.47129 11.516 9.45371 12.7526C9.43613 13.9715 9.44199 14.0653 9.5592 14.288C9.77603 14.7217 9.94013 14.7627 11.3818 14.7627C12.7532 14.7627 12.9056 14.7334 13.1517 14.3876C13.2748 14.2118 13.2806 14.1591 13.2806 12.817C13.2806 11.5101 13.2748 11.4222 13.1576 11.264C12.9114 10.9241 12.7649 10.8948 11.376 10.8948C10.3328 10.8948 10.0808 10.9124 9.92255 10.9944ZM12.3723 12.8287V13.825H11.376H10.3797V12.8287V11.8325H11.376H12.3723V12.8287Z" fill="#201F1D"/>
<path id="Vector_5" d="M15.8946 11.0003C15.7832 11.053 15.6367 11.1761 15.5722 11.264C15.455 11.4222 15.4492 11.5101 15.4492 12.817C15.4492 14.1591 15.455 14.2118 15.5781 14.3876C15.8242 14.7334 15.9766 14.7627 17.348 14.7627C18.7896 14.7627 18.9537 14.7217 19.1706 14.288C19.2878 14.0653 19.2936 13.9715 19.276 12.7526C19.2585 11.516 19.2526 11.4398 19.1295 11.2699C18.8834 10.9241 18.7369 10.8948 17.3421 10.8948C16.2696 10.8948 16.0645 10.9065 15.8946 11.0003ZM18.3501 12.8287V13.825H17.3538H16.3575V12.8287V11.8325H17.3538H18.3501V12.8287Z" fill="#201F1D"/>
<path id="Vector_6" d="M21.8722 11.0003C21.7608 11.053 21.6143 11.1761 21.5499 11.264C21.4327 11.4222 21.4268 11.5043 21.4268 12.8287C21.4268 14.1415 21.4327 14.2353 21.544 14.3876C21.8019 14.7334 21.9484 14.7627 23.3197 14.7627C24.5035 14.7627 24.5915 14.7568 24.8024 14.6338C25.2185 14.4052 25.2654 14.2118 25.2654 12.8229C25.2654 11.6918 25.2595 11.6098 25.1365 11.3636C24.9079 10.9241 24.7966 10.8948 23.3315 10.8948C22.2473 10.8948 22.0421 10.9065 21.8722 11.0003ZM24.3277 12.8287V13.825H23.3315H22.3352V12.8287V11.8325H23.3315H24.3277V12.8287Z" fill="#201F1D"/>
<path id="Vector_7" d="M3.87524 16.4741C3.48259 16.7437 3.45915 16.8609 3.47673 18.3202C3.49431 19.5274 3.50017 19.6329 3.61738 19.7794C3.9104 20.1779 3.93384 20.1838 5.32864 20.2014C6.5652 20.219 6.60622 20.219 6.85822 20.0842C7.30362 19.8439 7.33292 19.7384 7.33292 18.2498C7.33292 16.8082 7.30948 16.7027 6.91096 16.4624C6.73515 16.3569 6.61208 16.3452 5.3931 16.3452C4.11552 16.3452 4.06278 16.3511 3.87524 16.4741ZM6.39524 18.2791V19.2754H5.39896H4.40268V18.2791V17.2829H5.39896H6.39524V18.2791Z" fill="#201F1D"/>
<path id="Vector_8" d="M9.84675 16.4798C9.47754 16.7259 9.44238 16.8724 9.44238 18.2438C9.44238 19.3631 9.4541 19.4921 9.56545 19.7206C9.65336 19.9023 9.75299 20.0019 9.93466 20.0898C10.1574 20.2012 10.2922 20.2129 11.3764 20.2129C12.7594 20.2129 12.9528 20.166 13.1814 19.7499C13.3045 19.5389 13.3103 19.451 13.3103 18.2731C13.3103 16.8666 13.281 16.7259 12.906 16.4798C12.7126 16.3508 12.6598 16.345 11.3764 16.345C10.0929 16.345 10.0402 16.3508 9.84675 16.4798ZM12.3727 18.2789V19.2752H11.3764H10.3801V18.2789V17.2827H11.3764H12.3727V18.2789Z" fill="#201F1D"/>
<path id="Vector_9" d="M15.8242 16.4798C15.4492 16.7259 15.4199 16.8666 15.4199 18.2731C15.4199 19.451 15.4257 19.5389 15.5488 19.7499C15.7773 20.166 15.9707 20.2129 17.3538 20.2129C18.438 20.2129 18.5728 20.2012 18.7955 20.0898C18.9772 20.0019 19.0768 19.9023 19.1647 19.7206C19.2761 19.4921 19.2878 19.3631 19.2878 18.2438C19.2878 16.8724 19.2526 16.7259 18.8834 16.4798C18.69 16.3508 18.6373 16.345 17.3538 16.345C16.0704 16.345 16.0176 16.3508 15.8242 16.4798ZM18.3501 18.2789V19.2752H17.3538H16.3575V18.2789V17.2827H17.3538H18.3501V18.2789Z" fill="#201F1D"/>
<path id="Vector_10" d="M21.8722 16.5679C21.7608 16.6206 21.6143 16.7437 21.5499 16.8316C21.4327 16.9899 21.4268 17.0719 21.4268 18.3964C21.4268 19.7091 21.4327 19.8029 21.544 19.9553C21.8019 20.301 21.9484 20.3303 23.3197 20.3303C24.5035 20.3303 24.5915 20.3245 24.8024 20.2014C25.2185 19.9728 25.2654 19.7794 25.2654 18.3905C25.2654 17.2594 25.2595 17.1774 25.1365 16.9312C24.9079 16.4917 24.7966 16.4624 23.3315 16.4624C22.2473 16.4624 22.0421 16.4741 21.8722 16.5679ZM24.3277 18.3964V19.3926H23.3315H22.3352V18.3964V17.4001H23.3315H24.3277V18.3964Z" fill="#201F1D"/>
<path id="Vector_11" d="M3.86922 21.9302C3.50001 22.1764 3.46484 22.3229 3.46484 23.7001C3.46484 25.0773 3.50001 25.2238 3.86922 25.4699C4.06261 25.5989 4.10949 25.6047 5.43396 25.6047H6.79359L6.98113 25.4524C7.31517 25.1652 7.33275 25.089 7.33275 23.7001C7.33275 22.3112 7.31517 22.235 6.98113 21.9478L6.79359 21.7954H5.43396C4.10949 21.7954 4.06261 21.8013 3.86922 21.9302ZM6.39508 23.7001V24.7257H5.3988H4.40252V23.7001V22.6745H5.3988H6.39508V23.7001Z" fill="#201F1D"/>
<path id="Vector_12" d="M9.85261 21.9243C9.47754 22.1763 9.44238 22.317 9.44238 23.7C9.44238 25.0831 9.47754 25.2238 9.85261 25.4758C10.0519 25.6106 10.0753 25.6106 11.4408 25.593L12.8298 25.5754L12.9939 25.4289C13.281 25.1593 13.3103 25.0069 13.3103 23.7C13.3103 22.3932 13.281 22.2408 12.9939 21.9712L12.8298 21.8247L11.4408 21.8071C10.0753 21.7895 10.0519 21.7895 9.85261 21.9243ZM12.3727 23.7V24.7256H11.3764H10.3801V23.7V22.6745H11.3764H12.3727V23.7Z" fill="#201F1D"/>
<path id="Vector_13" d="M15.918 21.854C15.7598 21.9185 15.5605 22.1412 15.4843 22.3404C15.4492 22.4342 15.4199 22.7155 15.4199 22.9734C15.4199 23.3953 15.4374 23.4539 15.5664 23.5828C15.6543 23.6766 15.7773 23.7294 15.8887 23.7294C16 23.7294 16.1231 23.6766 16.211 23.5828C16.34 23.4598 16.3575 23.3894 16.3575 23.0554V22.6745H17.3538H18.3501V23.7V24.7256H17.3597H16.3693L16.3341 24.5791C16.3107 24.4854 16.2169 24.3916 16.0938 24.333C15.9004 24.2392 15.877 24.2392 15.6836 24.333C15.3378 24.4971 15.332 24.9776 15.6836 25.3586L15.877 25.5754L17.2776 25.593C18.6548 25.6106 18.6783 25.6106 18.8775 25.4758C19.2526 25.2238 19.2878 25.0831 19.2878 23.7C19.2878 22.3228 19.2526 22.1763 18.8834 21.9302C18.69 21.8013 18.6431 21.7954 17.3597 21.8013C16.633 21.8013 15.9825 21.8247 15.918 21.854Z" fill="#201F1D"/>
<path id="Vector_14" d="M4.28516 11.7153H6.62934V13.9423H4.28516V11.7153Z" fill="#FFFBEF"/>
<path id="Vector_15" d="M16.1821 17.2242H18.5262V19.4512H16.1821V17.2242Z" fill="#FFFBEF"/>
<path id="Vector_16" d="M4.28516 22.5572H6.62934V24.7842H4.28516V22.5572Z" fill="#FFFBEF"/>
<path id="Vector_17" d="M22.2769 11.7153H24.6211V13.9423H22.2769V11.7153Z" fill="#FFFBEF"/>
</g>
<defs>
<clipPath id="clip0_249_6864">
<rect width="28" height="30" fill="white" transform="translate(0.334961)"/>
</clipPath>
</defs>
</svg>
